HIERARCHY
ROOT hip
{
	OFFSET 0.000000 0.000000 0.000000 
	CHANNELS 6 Xposition Yposition Zposition Xrotation Zrotation Yrotation
	JOINT abdomen
	{
		OFFSET 0.000000 3.402643 0.000000 
		CHANNELS 3 Xrotation Zrotation Yrotation
		JOINT chest
		{
			OFFSET 0.000000 8.438565 -0.680529 
			CHANNELS 3 Xrotation Zrotation Yrotation
			JOINT neck
			{
				OFFSET 0.000000 10.207942 -0.272212 
				CHANNELS 3 Xrotation Zrotation Yrotation
				JOINT head
				{
					OFFSET 0.000000 3.130431 0.000000 
					CHANNELS 3 Xrotation Zrotation Yrotation
					End Site
					{
						OFFSET 0.000000 3.130435 0.000000 
					}
				}
			}
			JOINT lCollar
			{
				OFFSET 3.470700 6.669187 -0.816635 
				CHANNELS 3 Yrotation Zrotation Xrotation
				JOINT lShldr
				{
					OFFSET 3.198488 0.000000 0.000000 
					CHANNELS 3 Zrotation Yrotation Xrotation
					JOINT lForeArm
					{
						OFFSET 10.139888 0.000000 0.000000 
						CHANNELS 3 Yrotation Zrotation Xrotation
						JOINT lHand
						{
							OFFSET 8.370511 0.000000 0.000000 
							CHANNELS 3 Zrotation Yrotation Xrotation
							End Site
							{
								OFFSET 4.083176 0.000000 0.000000 
							}
						}
					}
				}
			}
			JOINT rCollar
			{
				OFFSET -3.470700 6.669187 -0.816635 
				CHANNELS 3 Yrotation Zrotation Xrotation
				JOINT rShldr
				{
					OFFSET -3.198488 0.000000 0.000000 
					CHANNELS 3 Zrotation Yrotation Xrotation
					JOINT rForeArm
					{
						OFFSET -10.139888 0.000000 0.000000 
						CHANNELS 3 Yrotation Zrotation Xrotation
						JOINT rHand
						{
							OFFSET -8.370511 0.000000 0.000000 
							CHANNELS 3 Zrotation Yrotation Xrotation
							End Site
							{
								OFFSET -4.083176 0.000000 0.000000 
							}
						}
					}
				}
			}
		}
	}
	JOINT lThigh
	{
		OFFSET 5.308129 -1.633274 1.361059 
		CHANNELS 3 Xrotation Zrotation Yrotation
		JOINT lShin
		{
			OFFSET -2.041588 -20.007561 0.000000 
			CHANNELS 3 Xrotation Zrotation Yrotation
			JOINT lFoot
			{
				OFFSET 0.000000 -19.190928 -1.224953 
				CHANNELS 3 Xrotation Yrotation Zrotation
				End Site
				{
					OFFSET 0.000000 -2.449906 4.627600 
				}
			}
		}
	}
	JOINT rThigh
	{
		OFFSET -5.308129 -1.633274 1.361059 
		CHANNELS 3 Xrotation Zrotation Yrotation
		JOINT rShin
		{
			OFFSET 2.041588 -20.007561 0.000000 
			CHANNELS 3 Xrotation Zrotation Yrotation
			JOINT rFoot
			{
				OFFSET 0.000000 -19.190928 -1.224953 
				CHANNELS 3 Xrotation Yrotation Zrotation
				End Site
				{
					OFFSET 0.000000 -2.449906 4.627600 
				}
			}
		}
	}
}
MOTION
Frames: 10
Frame Time: 0.033333
-0.440197 50.537907 -0.013771 3.620929 -2.352537 -9.148489 0.000000 0.000000 0.000000 -1.967204 7.664806 8.258459 7.524451 9.179119 0.643773 -6.291527 -3.611264 -16.684643 0.462685 26.431433 24.279877 -101.179199 -5.750430 -3.773175 -38.232662 -2.893147 43.865532 -10.109199 11.706450 46.489494 -15.412409 -0.581261 24.370272 62.872883 25.393438 63.265049 9.683732 -9.125375 -15.719843 21.524601 0.209247 -10.151164 9.696616 9.482167 20.379553 57.024853 1.337859 -2.155689 5.284296 6.904553 -19.505770 -1.676537 4.385724 2.483706 11.026102 1.793456 0.443820 -7.163057 -12.596753 27.780169 
-0.856479 50.576557 -0.123641 3.976965 -3.650375 -8.562897 0.000000 0.000000 0.000000 -1.537327 8.799648 8.529490 6.638412 8.817847 0.622932 -6.053794 -3.380115 -17.052580 1.196028 27.117090 23.906694 -101.413025 -6.647188 -3.632388 -38.254921 -3.174902 45.657703 -11.065442 11.286239 46.244282 -15.010143 -1.397188 24.151999 63.260029 25.917786 63.367817 10.336902 -10.015290 -16.227091 20.505508 0.081515 -10.299640 3.355980 12.632431 21.679804 64.510406 3.699049 -1.921834 7.214669 7.007826 -19.161266 1.122949 6.395253 3.004235 8.917995 1.267624 0.171731 -7.850229 -13.165984 27.144718 
-1.220252 50.597919 -0.337206 4.179033 -4.436030 -8.267178 0.000000 0.000000 0.000000 -0.759058 9.356900 8.662182 5.905776 7.880498 0.552422 -6.243588 -2.953396 -16.868952 2.596829 26.951897 23.236101 -101.174271 -7.486585 -3.760469 -37.979958 -3.331576 43.904339 -9.571723 10.444406 46.830978 -13.728280 -2.653048 23.883959 64.050659 26.947239 63.589027 10.640206 -11.106139 -16.025646 20.091654 -0.135735 -10.402013 -2.803644 14.711058 22.341995 69.073868 5.671024 -1.605263 7.485788 6.649730 -18.704432 3.774990 7.833818 3.363959 7.000373 0.751425 -0.081773 -7.975952 -13.132144 27.339493 
-1.499035 50.626659 -0.636442 4.479970 -4.723826 -8.447071 0.000000 0.000000 0.000000 -0.011727 9.453442 8.663785 5.451293 6.464644 0.452959 -6.432044 -2.476656 -16.138803 4.436727 25.920723 22.410561 -100.386436 -8.084597 -4.221457 -37.467480 -3.632728 39.216164 -6.435432 9.278700 47.917126 -11.941900 -4.609174 23.559698 65.482811 28.664999 64.019287 10.443878 -11.799597 -15.296286 20.329552 -0.324431 -10.402669 -8.485316 15.714880 22.404573 69.891495 6.593983 -1.423359 6.958009 6.419684 -19.206085 5.565632 8.719342 3.596926 6.061029 0.448710 -0.222218 -8.055161 -12.424625 27.382093 
-1.668661 50.659248 -0.928795 4.668383 -4.403369 -8.590717 0.000000 0.000000 0.000000 0.598271 8.809978 8.500547 5.184557 4.872964 0.333320 -6.435872 -2.130620 -15.127910 5.744071 24.692635 21.930626 -99.484901 -8.477761 -4.736379 -37.155602 -3.974494 33.873749 -3.400697 8.516489 48.903969 -10.568540 -6.923888 23.216162 67.247635 30.623283 64.555199 10.287601 -12.375065 -13.748196 20.827890 -0.554616 -10.367157 -13.084262 15.434484 21.875772 67.476181 6.624384 -1.356866 5.881699 7.045283 -19.892420 6.727499 8.729086 3.576772 6.051961 0.438986 -0.222944 -8.984361 -11.867264 25.435831 
-1.773744 50.686569 -1.206950 4.824053 -3.467515 -8.492234 0.000000 0.000000 0.000000 0.949534 7.348036 8.134610 4.951936 3.085920 0.196081 -6.204109 -1.750670 -14.303783 6.568555 23.334766 21.719128 -98.395058 -8.881267 -5.377285 -37.083267 -4.206330 29.803589 -1.324845 8.508859 49.574524 -9.581296 -9.260116 22.926029 69.033600 32.430325 65.145348 10.359552 -13.077654 -11.974466 21.077332 -0.522967 -10.333063 -16.785215 14.049315 20.908327 62.279228 6.039013 -1.319302 4.443759 8.032644 -20.175247 7.572053 8.050747 3.344224 6.486675 0.614024 -0.168572 -10.455533 -12.065071 22.506191 
-1.876660 50.728489 -1.448162 4.901082 -2.434470 -8.415907 0.000000 0.000000 0.000000 1.142415 5.574696 7.692869 4.795863 1.103515 0.049007 -5.807892 -1.176719 -13.655424 7.021442 21.541031 21.754435 -96.801254 -9.280970 -6.293490 -37.057873 -4.004858 28.101669 -0.643656 9.184711 49.870148 -8.960740 -11.396323 22.663095 70.724968 33.992050 65.721008 10.871029 -13.681477 -10.538241 20.926905 -0.502788 -10.345264 -19.245993 12.594842 20.080202 55.211357 4.848948 -1.326919 2.993247 8.447757 -19.963772 8.766488 7.273094 3.105664 6.564669 0.701894 -0.122665 -11.647772 -12.293265 20.579805 
-1.982344 50.771862 -1.641592 5.112527 -1.593437 -8.548382 0.000000 0.000000 0.000000 1.068150 3.913328 7.312478 4.630421 -0.888671 -0.097796 -5.233255 -0.637431 -13.038027 7.498260 19.456978 21.835804 -95.089264 -9.614656 -7.284896 -36.984501 -3.218651 28.416206 -0.982538 10.231836 49.851997 -8.591924 -13.421291 22.402315 72.434593 35.068512 66.426056 11.890231 -14.446974 -9.399446 20.684395 -0.692623 -10.406427 -20.633238 11.707207 19.580496 47.597183 2.974389 -1.389572 2.078531 8.184144 -19.765142 10.094619 6.707248 2.919796 6.395151 0.633125 -0.132855 -12.537653 -12.207315 19.958836 
-2.079269 50.785423 -1.796495 5.554364 -0.926343 -8.848859 0.000000 0.000000 0.000000 0.633078 2.307116 6.958861 4.444206 -2.705058 -0.225281 -4.634863 -0.104856 -12.548862 8.071458 17.531479 21.892000 -93.801643 -9.827569 -8.031473 -36.838741 -1.814886 29.356781 -1.720515 11.496397 49.689178 -8.271539 -15.429954 22.160000 74.151840 35.675911 67.237694 13.387243 -15.524762 -7.886357 20.703461 -0.758727 -10.390444 -20.739813 11.091214 19.371874 38.933147 0.674524 -1.492695 2.285149 8.053221 -20.207989 11.166685 6.345194 2.779399 6.371397 0.476591 -0.188554 -13.406886 -12.038794 19.840994 
-2.161021 50.762287 -1.882781 5.920087 -0.433765 -9.228840 0.000000 0.000000 0.000000 0.119901 0.698463 6.602141 4.205486 -4.316329 -0.343032 -4.055703 0.505669 -12.314914 8.545575 15.750269 22.002291 -92.868164 -9.872033 -8.572878 -36.484756 -0.005889 29.662081 -2.289988 12.450055 49.595295 -8.060942 -17.335070 21.907585 75.725357 35.796627 68.094818 15.451478 -16.955158 -5.853264 21.174536 -0.782898 -10.302144 -19.687458 10.478707 19.280802 29.618092 -1.625929 -1.507057 2.589025 8.644369 -20.934727 12.452787 6.080536 2.695793 6.452928 0.272803 -0.222232 -14.331544 -11.862910 19.902122 
